{
    "asset" : {
        "generator" : "Khronos glTF Blender I/O v1.3.48",
        "version" : "2.0"
    },
    "scene" : 0,
    "scenes" : [
        {
            "name" : "Scene",
            "nodes" : [
                0,
                1,
                2,
                3,
                4,
                5,
                6,
                7,
                8,
                9,
                10,
                11,
                12
            ]
        }
    ],
    "nodes" : [
        {
            "mesh" : 0,
            "name" : "E:LIMIT",
            "scale" : [
                0.023999981582164764,
                0.024000000208616257,
                0.024000000208616257
            ]
        },
        {
            "name" : "Direct01",
            "rotation" : [
                -0.5111590027809143,
                0.3879654109477997,
                0.7150378823280334,
                0.27734479308128357
            ],
            "scale" : [
                0.024130001664161682,
                0.024130001664161682,
                0.024129999801516533
            ],
            "translation" : [
                8.907060623168945,
                13.349861145019531,
                -1.9553296566009521
            ]
        },
        {
            "name" : "Direct01.Target",
            "scale" : [
                0.024129999801516533,
                0.024129999801516533,
                0.024129999801516533
            ],
            "translation" : [
                4.9777960777282715,
                10.649642944335938,
                -0.6115486025810242
            ]
        },
        {
            "name" : "START1-1",
            "scale" : [
                0.024129999801516533,
                0.024129999801516533,
                0.024129999801516533
            ],
            "translation" : [
                0.5933440327644348,
                3.4840965270996094,
                0.339212030172348
            ]
        },
        {
            "name" : "Rail",
            "scale" : [
                0.02539999969303608,
                0.02539999969303608,
                0.02539999969303608
            ],
            "translation" : [
                0.5824268460273743,
                0.8052362203598022,
                5.060307502746582
            ]
        },
        {
            "mesh" : 1,
            "name" : "Flooring",
            "scale" : [
                0.024129999801516533,
                0.024129999801516533,
                0.024129999801516533
            ],
            "translation" : [
                0.5084571838378906,
                -0.18770599365234375,
                0.2593594193458557
            ]
        },
        {
            "name" : "Flagpole04",
            "rotation" : [
                0,
                -0.15647763013839722,
                0,
                0.98768150806427
            ],
            "scale" : [
                0.02539999783039093,
                0.02539999969303608,
                0.02539999783039093
            ],
            "translation" : [
                51.41852951049805,
                -19.892438888549805,
                39.27902603149414
            ]
        },
        {
            "mesh" : 2,
            "name" : "T:GoalImage(NOCOLLIDE)",
            "scale" : [
                0.024129999801516533,
                0.024129999801516533,
                0.024129999801516533
            ],
            "translation" : [
                0.5084588527679443,
                -0.18770787119865417,
                0.2593567669391632
            ]
        },
        {
            "mesh" : 3,
            "name" : "N:GOAL",
            "scale" : [
                0.024129999801516533,
                0.024129999801516533,
                0.024129999801516533
            ]
        },
        {
            "name" : "Flagpole07",
            "rotation" : [
                0,
                -0.15647763013839722,
                0,
                0.98768150806427
            ],
            "scale" : [
                0.02539999783039093,
                0.02539999969303608,
                0.02539999783039093
            ],
            "translation" : [
                59.06392288208008,
                -19.892438888549805,
                39.7260627746582
            ]
        },
        {
            "name" : "SAFESPOT",
            "scale" : [
                0.02539999969303608,
                0.02539999969303608,
                0.02539999969303608
            ],
            "translation" : [
                0,
                3.2472164630889893,
                0
            ]
        },
        {
            "name" : "START2-1",
            "scale" : [
                0.024129999801516533,
                0.024129999801516533,
                0.024129999801516533
            ],
            "translation" : [
                -0.44348815083503723,
                3.4840965270996094,
                0.339212030172348
            ]
        },
        {
            "name" : "START2-2",
            "scale" : [
                0.024129999801516533,
                0.024129999801516533,
                0.024129999801516533
            ],
            "translation" : [
                1.4562712907791138,
                3.4840965270996094,
                0.339212030172348
            ]
        }
    ],
    "materials" : [
        {
            "doubleSided" : true,
            "emissiveFactor" : [
                0,
                0,
                0
            ],
            "name" : "2 - Default",
            "pbrMetallicRoughness" : {
                "metallicFactor" : 1,
                "roughnessFactor" : 0.6636414527893066
            }
        },
        {
            "doubleSided" : true,
            "emissiveFactor" : [
                0,
                0,
                0
            ],
            "name" : "GOAL",
            "pbrMetallicRoughness" : {
                "metallicFactor" : 1,
                "roughnessFactor" : 0.858578622341156
            }
        },
        {
            "doubleSided" : true,
            "emissiveFactor" : [
                0,
                0,
                0
            ],
            "name" : "GreyChecker",
            "pbrMetallicRoughness" : {
                "metallicFactor" : 1,
                "roughnessFactor" : 0.6636414527893066
            }
        }
    ],
    "meshes" : [
        {
            "name" : "E:LIMIT",
            "primitives" : [
                {
                    "attributes" : {
                        "POSITION" : 0,
                        "NORMAL" : 1,
                        "TEXCOORD_0" : 2
                    },
                    "indices" : 3
                }
            ]
        },
        {
            "name" : "Flooring",
            "primitives" : [
                {
                    "attributes" : {
                        "POSITION" : 4,
                        "NORMAL" : 5,
                        "TEXCOORD_0" : 6
                    },
                    "indices" : 7,
                    "material" : 0
                }
            ]
        },
        {
            "name" : "T:GoalImage(NOCOLLIDE)",
            "primitives" : [
                {
                    "attributes" : {
                        "POSITION" : 8,
                        "NORMAL" : 9,
                        "TEXCOORD_0" : 10
                    },
                    "indices" : 11,
                    "material" : 1
                }
            ]
        },
        {
            "name" : "N:GOAL",
            "primitives" : [
                {
                    "attributes" : {
                        "POSITION" : 12,
                        "NORMAL" : 13,
                        "TEXCOORD_0" : 14
                    },
                    "indices" : 15,
                    "material" : 2
                }
            ]
        }
    ],
    "accessors" : [
        {
            "bufferView" : 0,
            "componentType" : 5126,
            "count" : 4,
            "max" : [
                5859.39208984375,
                -871.357421875,
                5859.39208984375
            ],
            "min" : [
                -5859.39208984375,
                -871.357421875,
                -5859.39208984375
            ],
            "type" : "VEC3"
        },
        {
            "bufferView" : 1,
            "componentType" : 5126,
            "count" : 4,
            "type" : "VEC3"
        },
        {
            "bufferView" : 2,
            "componentType" : 5126,
            "count" : 4,
            "type" : "VEC2"
        },
        {
            "bufferView" : 3,
            "componentType" : 5123,
            "count" : 6,
            "type" : "SCALAR"
        },
        {
            "bufferView" : 4,
            "componentType" : 5126,
            "count" : 68,
            "max" : [
                2222.4609375,
                50,
                1454.0303955078125
            ],
            "min" : [
                -150,
                -647.6519165039062,
                -150
            ],
            "type" : "VEC3"
        },
        {
            "bufferView" : 5,
            "componentType" : 5126,
            "count" : 68,
            "type" : "VEC3"
        },
        {
            "bufferView" : 6,
            "componentType" : 5126,
            "count" : 68,
            "type" : "VEC2"
        },
        {
            "bufferView" : 7,
            "componentType" : 5123,
            "count" : 96,
            "type" : "SCALAR"
        },
        {
            "bufferView" : 8,
            "componentType" : 5126,
            "count" : 15,
            "max" : [
                2353.015625,
                -638.9652709960938,
                1648.712158203125
            ],
            "min" : [
                2126.20458984375,
                -703.3394775390625,
                1189.5487060546875
            ],
            "type" : "VEC3"
        },
        {
            "bufferView" : 9,
            "componentType" : 5126,
            "count" : 15,
            "type" : "VEC3"
        },
        {
            "bufferView" : 10,
            "componentType" : 5126,
            "count" : 15,
            "type" : "VEC2"
        },
        {
            "bufferView" : 11,
            "componentType" : 5123,
            "count" : 48,
            "type" : "SCALAR"
        },
        {
            "bufferView" : 12,
            "componentType" : 5126,
            "count" : 181,
            "max" : [
                2721.77490234375,
                -509.5666198730469,
                1878.1251220703125
            ],
            "min" : [
                1748.4261474609375,
                -587.5615234375,
                904.7763671875
            ],
            "type" : "VEC3"
        },
        {
            "bufferView" : 13,
            "componentType" : 5126,
            "count" : 181,
            "type" : "VEC3"
        },
        {
            "bufferView" : 14,
            "componentType" : 5126,
            "count" : 181,
            "type" : "VEC2"
        },
        {
            "bufferView" : 15,
            "componentType" : 5123,
            "count" : 282,
            "type" : "SCALAR"
        }
    ],
    "bufferViews" : [
        {
            "buffer" : 0,
            "byteLength" : 48,
            "byteOffset" : 0
        },
        {
            "buffer" : 0,
            "byteLength" : 48,
            "byteOffset" : 48
        },
        {
            "buffer" : 0,
            "byteLength" : 32,
            "byteOffset" : 96
        },
        {
            "buffer" : 0,
            "byteLength" : 12,
            "byteOffset" : 128
        },
        {
            "buffer" : 0,
            "byteLength" : 816,
            "byteOffset" : 140
        },
        {
            "buffer" : 0,
            "byteLength" : 816,
            "byteOffset" : 956
        },
        {
            "buffer" : 0,
            "byteLength" : 544,
            "byteOffset" : 1772
        },
        {
            "buffer" : 0,
            "byteLength" : 192,
            "byteOffset" : 2316
        },
        {
            "buffer" : 0,
            "byteLength" : 180,
            "byteOffset" : 2508
        },
        {
            "buffer" : 0,
            "byteLength" : 180,
            "byteOffset" : 2688
        },
        {
            "buffer" : 0,
            "byteLength" : 120,
            "byteOffset" : 2868
        },
        {
            "buffer" : 0,
            "byteLength" : 96,
            "byteOffset" : 2988
        },
        {
            "buffer" : 0,
            "byteLength" : 2172,
            "byteOffset" : 3084
        },
        {
            "buffer" : 0,
            "byteLength" : 2172,
            "byteOffset" : 5256
        },
        {
            "buffer" : 0,
            "byteLength" : 1448,
            "byteOffset" : 7428
        },
        {
            "buffer" : 0,
            "byteLength" : 564,
            "byteOffset" : 8876
        }
    ],
    "buffers" : [
        {
            "byteLength" : 9440,
            "uri" : "data:application/octet-stream;base64,"
        }
    ]
}
